<svg width="762" height="900" viewBox="0 0 762 900" fill="none" xmlns="http://www.w3.org/2000/svg">
<g clip-path="url(#clip0)">
<path d="M443.321 493.077H78.8639C75.9242 493.074 73.1058 491.755 71.0271 489.411C68.9484 487.066 67.7791 483.888 67.7758 480.573V248.816H454.409V480.573C454.406 483.888 453.237 487.066 451.158 489.411C449.079 491.755 446.261 493.074 443.321 493.077Z" fill="#E6E6E6"/>
<path d="M428.817 469.141H93.3676C91.8532 469.139 90.4013 468.46 89.3304 467.252C88.2596 466.045 87.6572 464.407 87.6555 462.699V279.193C87.6572 277.485 88.2596 275.848 89.3304 274.64C90.4013 273.432 91.8532 272.753 93.3676 272.751H428.817C430.332 272.753 431.784 273.432 432.854 274.64C433.925 275.848 434.528 277.485 434.529 279.193V462.699C434.528 464.407 433.925 466.045 432.854 467.252C431.784 468.46 430.332 469.139 428.817 469.141Z" fill="white"/>
<path d="M455.185 257.263H67V247.223C67.0033 243.908 68.1726 240.729 70.2513 238.385C72.33 236.04 75.1484 234.722 78.0881 234.718H444.097C447.037 234.722 449.855 236.04 451.934 238.385C454.013 240.729 455.182 243.908 455.185 247.223V257.263Z" fill="#3857E0"/>
<path d="M178.722 308.767H119.014C117.499 308.768 116.047 309.447 114.976 310.655C113.905 311.862 113.303 313.5 113.302 315.208V359.468C113.303 361.176 113.905 362.814 114.976 364.022C116.047 365.23 117.499 365.909 119.014 365.91H178.722C180.236 365.908 181.688 365.228 182.758 364.021C183.829 362.813 184.432 361.176 184.434 359.468V315.208C184.432 313.501 183.829 311.864 182.758 310.656C181.688 309.448 180.236 308.769 178.722 308.767Z" fill="#E6E6E6"/>
<path d="M290.947 308.767H231.239C229.724 308.768 228.272 309.447 227.201 310.655C226.13 311.862 225.528 313.5 225.527 315.208V359.468C225.528 361.176 226.13 362.814 227.201 364.022C228.272 365.23 229.724 365.909 231.239 365.91H290.947C292.461 365.908 293.913 365.228 294.984 364.021C296.055 362.813 296.657 361.176 296.659 359.468V315.208C296.657 313.501 296.055 311.864 294.984 310.656C293.913 309.448 292.461 308.769 290.947 308.767Z" fill="#E6E6E6"/>
<path d="M403.173 308.767H343.465C341.95 308.768 340.498 309.447 339.427 310.655C338.356 311.862 337.753 313.5 337.752 315.208V359.468C337.753 361.176 338.356 362.814 339.427 364.022C340.498 365.23 341.95 365.909 343.465 365.91H403.173C404.687 365.908 406.138 365.228 407.209 364.021C408.28 362.813 408.883 361.176 408.885 359.468V315.208C408.883 313.501 408.28 311.864 407.209 310.656C406.138 309.448 404.687 308.769 403.173 308.767Z" fill="#E6E6E6"/>
<path d="M170.275 386.827H127.461C126.619 386.827 125.811 387.205 125.216 387.876C124.62 388.548 124.286 389.459 124.286 390.408C124.286 391.358 124.62 392.269 125.216 392.94C125.811 393.612 126.619 393.989 127.461 393.989H170.275C171.117 393.989 171.924 393.612 172.52 392.94C173.115 392.269 173.45 391.358 173.45 390.408C173.45 389.459 173.115 388.548 172.52 387.876C171.924 387.205 171.117 386.827 170.275 386.827Z" fill="#E6E6E6"/>
<path d="M170.275 406.396H127.461C126.734 406.394 126.029 406.674 125.463 407.188C124.897 407.703 124.505 408.421 124.353 409.222C124.2 410.023 124.296 410.86 124.624 411.591C124.953 412.322 125.494 412.904 126.157 413.239C126.566 413.45 127.011 413.558 127.461 413.557H170.275C171.117 413.557 171.924 413.18 172.52 412.509C173.115 411.837 173.45 410.926 173.45 409.976C173.45 409.027 173.115 408.116 172.52 407.444C171.924 406.773 171.117 406.396 170.275 406.396Z" fill="#E6E6E6"/>
<path d="M282.5 386.827H239.686C238.844 386.827 238.037 387.205 237.441 387.876C236.846 388.548 236.511 389.459 236.511 390.408C236.511 391.358 236.846 392.269 237.441 392.94C238.037 393.612 238.844 393.989 239.686 393.989H282.5C283.342 393.989 284.15 393.612 284.745 392.94C285.341 392.269 285.675 391.358 285.675 390.408C285.675 389.459 285.341 388.548 284.745 387.876C284.15 387.205 283.342 386.827 282.5 386.827Z" fill="#E6E6E6"/>
<path d="M282.5 406.396H239.686C238.844 406.396 238.037 406.773 237.441 407.444C236.846 408.116 236.511 409.027 236.511 409.976C236.511 410.926 236.846 411.837 237.441 412.509C238.037 413.18 238.844 413.557 239.686 413.557H282.5C283.342 413.557 284.15 413.18 284.745 412.509C285.341 411.837 285.675 410.926 285.675 409.976C285.675 409.027 285.341 408.116 284.745 407.444C284.15 406.773 283.342 406.396 282.5 406.396Z" fill="#E6E6E6"/>
<path d="M282.5 425.964H239.686C238.932 425.963 238.201 426.265 237.626 426.816C237.051 427.368 236.669 428.132 236.548 428.973C236.428 429.813 236.576 430.674 236.968 431.402C237.36 432.13 237.968 432.676 238.685 432.944C239.008 433.066 239.346 433.128 239.686 433.126H282.5C283.342 433.126 284.15 432.748 284.745 432.077C285.341 431.405 285.675 430.495 285.675 429.545C285.675 428.595 285.341 427.684 284.745 427.013C284.15 426.341 283.342 425.964 282.5 425.964Z" fill="#E6E6E6"/>
<path d="M394.726 386.827H351.912C351.07 386.827 350.262 387.205 349.667 387.876C349.071 388.548 348.737 389.459 348.737 390.408C348.737 391.358 349.071 392.269 349.667 392.94C350.262 393.612 351.07 393.989 351.912 393.989H394.726C395.568 393.989 396.375 393.612 396.971 392.94C397.566 392.269 397.901 391.358 397.901 390.408C397.901 389.459 397.566 388.548 396.971 387.876C396.375 387.205 395.568 386.827 394.726 386.827Z" fill="#E6E6E6"/>
<path d="M394.725 406.396H351.912C351.185 406.394 350.48 406.674 349.914 407.188C349.348 407.703 348.956 408.421 348.804 409.222C348.651 410.023 348.747 410.86 349.075 411.591C349.404 412.322 349.945 412.904 350.608 413.239C351.017 413.45 351.462 413.558 351.912 413.557H394.725C395.568 413.557 396.375 413.18 396.971 412.509C397.566 411.837 397.901 410.926 397.901 409.976C397.901 409.027 397.566 408.116 396.971 407.444C396.375 406.773 395.568 406.396 394.725 406.396Z" fill="#E6E6E6"/>
<path d="M394.726 425.964H351.912C351.07 425.964 350.262 426.341 349.667 427.013C349.071 427.684 348.737 428.595 348.737 429.545C348.737 430.495 349.071 431.405 349.667 432.077C350.262 432.748 351.07 433.126 351.912 433.126H394.726C395.568 433.126 396.375 432.748 396.971 432.077C397.566 431.405 397.901 430.495 397.901 429.545C397.901 428.595 397.566 427.684 396.971 427.013C396.375 426.341 395.568 425.964 394.726 425.964Z" fill="#E6E6E6"/>
<path d="M79.7181 249.369C81.3078 249.369 82.5966 247.916 82.5966 246.123C82.5966 244.33 81.3078 242.877 79.7181 242.877C78.1283 242.877 76.8396 244.33 76.8396 246.123C76.8396 247.916 78.1283 249.369 79.7181 249.369Z" fill="white"/>
<path d="M90.6441 249.369C92.2339 249.369 93.5226 247.916 93.5226 246.123C93.5226 244.33 92.2339 242.877 90.6441 242.877C89.0544 242.877 87.7656 244.33 87.7656 246.123C87.7656 247.916 89.0544 249.369 90.6441 249.369Z" fill="white"/>
<path d="M101.57 249.369C103.16 249.369 104.449 247.916 104.449 246.123C104.449 244.33 103.16 242.877 101.57 242.877C99.9804 242.877 98.6917 244.33 98.6917 246.123C98.6917 247.916 99.9804 249.369 101.57 249.369Z" fill="white"/>
<path d="M158.091 386.827H127.461C126.619 386.827 125.811 387.205 125.216 387.876C124.62 388.548 124.286 389.459 124.286 390.408C124.286 391.358 124.62 392.269 125.216 392.94C125.811 393.612 126.619 393.989 127.461 393.989H157.453C158.059 393.709 158.587 393.248 158.979 392.655C159.371 392.062 159.613 391.36 159.679 390.624C159.744 389.889 159.631 389.146 159.352 388.478C159.072 387.809 158.636 387.238 158.091 386.827Z" fill="#5787FF"/>
<path d="M143.945 406.396H127.461C126.734 406.394 126.029 406.674 125.463 407.188C124.897 407.703 124.505 408.421 124.353 409.222C124.2 410.023 124.296 410.86 124.624 411.591C124.953 412.322 125.494 412.904 126.157 413.239H141.297C142.256 413.239 143.176 412.809 143.853 412.044C144.531 411.28 144.912 410.243 144.913 409.162C144.918 408.134 144.571 407.143 143.945 406.396Z" fill="#5787FF"/>
<path d="M167.076 425.964H127.461C126.619 425.964 125.811 426.341 125.216 427.013C124.62 427.684 124.286 428.595 124.286 429.545C124.286 430.495 124.62 431.405 125.216 432.077C125.811 432.748 126.619 433.126 127.461 433.126H167.331C167.892 432.752 168.354 432.214 168.666 431.568C168.977 430.922 169.128 430.193 169.102 429.459C169.076 428.724 168.874 428.011 168.517 427.396C168.16 426.78 167.662 426.285 167.076 425.964Z" fill="#5787FF"/>
<path d="M362.456 386.827H351.912C351.209 386.826 350.525 387.089 349.968 387.573C349.412 388.058 349.013 388.737 348.836 389.504C348.658 390.271 348.712 391.083 348.987 391.813C349.263 392.542 349.746 393.148 350.359 393.534H359.7C360.659 393.534 361.578 393.104 362.256 392.34C362.934 391.575 363.315 390.538 363.316 389.457C363.319 388.492 363.013 387.559 362.456 386.827Z" fill="#5787FF"/>
<path d="M370.412 406.396H351.912C351.185 406.394 350.48 406.674 349.914 407.188C349.348 407.703 348.956 408.421 348.804 409.222C348.651 410.023 348.747 410.86 349.075 411.591C349.404 412.322 349.945 412.904 350.608 413.239H367.764C368.723 413.239 369.643 412.809 370.32 412.044C370.998 411.28 371.379 410.243 371.38 409.162C371.385 408.134 371.038 407.143 370.412 406.396Z" fill="#5787FF"/>
<path d="M383.462 425.964H351.912C351.07 425.964 350.262 426.341 349.667 427.013C349.071 427.684 348.737 428.595 348.737 429.545C348.737 430.495 349.071 431.405 349.667 432.077C350.262 432.748 351.07 433.126 351.912 433.126H383.718C384.279 432.752 384.741 432.214 385.052 431.568C385.364 430.922 385.515 430.193 385.489 429.459C385.463 428.724 385.261 428.011 384.904 427.396C384.547 426.78 384.049 426.285 383.462 425.964Z" fill="#5787FF"/>
<path d="M279.523 406.396H239.686C238.844 406.396 238.037 406.773 237.441 407.444C236.846 408.116 236.511 409.027 236.511 409.976C236.511 410.926 236.846 411.837 237.441 412.509C238.037 413.18 238.844 413.557 239.686 413.557H279.341C279.924 413.228 280.416 412.727 280.766 412.107C281.116 411.487 281.31 410.772 281.329 410.038C281.348 409.303 281.19 408.577 280.872 407.936C280.554 407.294 280.088 406.762 279.523 406.396Z" fill="#5787FF"/>
<path d="M243.96 425.964H239.686C238.932 425.963 238.201 426.265 237.626 426.816C237.051 427.368 236.669 428.132 236.548 428.973C236.428 429.813 236.576 430.674 236.968 431.402C237.36 432.13 237.968 432.676 238.685 432.944H241.427C242.385 432.943 243.305 432.514 243.983 431.749C244.661 430.985 245.042 429.948 245.042 428.866C245.044 428.326 244.949 427.79 244.763 427.291C244.577 426.792 244.304 426.341 243.96 425.964Z" fill="#5787FF"/>
<path d="M262.924 386.827H239.686C238.844 386.827 238.037 387.205 237.441 387.876C236.846 388.548 236.511 389.459 236.511 390.408C236.511 391.358 236.846 392.269 237.441 392.94C238.037 393.612 238.844 393.989 239.686 393.989H262.286C262.893 393.709 263.42 393.248 263.813 392.655C264.205 392.062 264.447 391.36 264.512 390.624C264.578 389.889 264.465 389.146 264.185 388.478C263.905 387.809 263.469 387.238 262.924 386.827Z" fill="#5787FF"/>
</g>
<path d="M946.469 863.096L191.481 472.101L870.146 16.3027L946.469 863.096Z" fill="#3857E0"/>
<g clip-path="url(#clip1)">
<path d="M722 422.685C722 477.534 693.165 496.686 657.596 496.686C622.027 496.686 593.193 477.534 593.193 422.685C593.193 367.835 657.596 298.057 657.596 298.057C657.596 298.057 722 367.835 722 422.685Z" fill="#7A849A"/>
<path d="M655.25 488.296L655.91 442.392L683.36 385.601L656.013 435.19L656.309 414.549L675.229 373.462L656.389 409.087L656.921 371.965L677.18 339.255L657.005 366.127L657.338 298.057L655.245 388.169L655.417 384.452L634.819 348.799L655.086 391.589L653.167 433.048L653.11 431.948L629.365 394.429L653.038 435.835L652.798 441.021L652.755 441.098L652.774 441.524L647.905 546.711H654.411L655.192 492.379L678.806 451.075L655.25 488.296Z" fill="#E5E5E5"/>
<path d="M291.547 300.575V303.333H224.743C214.488 303.333 204.654 307.939 197.403 316.139C190.152 324.339 186.078 335.46 186.078 347.056V507.111C186.078 518.707 190.152 529.828 197.403 538.028C204.654 546.228 214.488 550.835 224.743 550.835H591.238C596.316 550.835 601.343 549.704 606.034 547.506C610.725 545.309 614.988 542.088 618.578 538.028C622.169 533.968 625.017 529.148 626.96 523.843C628.903 518.538 629.903 512.853 629.903 507.111V347.057C629.903 341.315 628.903 335.629 626.96 330.324C625.017 325.019 622.169 320.199 618.578 316.139C614.988 312.079 610.726 308.858 606.035 306.661C601.344 304.464 596.316 303.333 591.238 303.333H339.1V300.575L291.547 300.575Z" fill="#3F3D56"/>
<path d="M225.013 312.639H590.969C598.627 312.639 605.971 316.08 611.387 322.203C616.802 328.327 619.844 336.633 619.844 345.293V506.115C619.844 514.775 616.802 523.081 611.387 529.205C605.971 535.328 598.627 538.769 590.969 538.769H225.013C217.354 538.769 210.01 535.328 204.595 529.205C199.179 523.081 196.137 514.775 196.137 506.115V486.605C198.22 487.564 200.48 487.929 202.717 487.668C204.954 487.408 207.1 486.529 208.967 485.111C210.834 483.692 212.363 481.776 213.421 479.532C214.48 477.288 215.034 474.784 215.036 472.24V380.547C215.034 378.004 214.48 375.5 213.421 373.255C212.363 371.011 210.834 369.095 208.967 367.677C207.1 366.258 204.954 365.38 202.717 365.119C200.48 364.858 198.22 365.223 196.137 366.182V345.293C196.137 336.633 199.179 328.327 204.594 322.203C210.01 316.08 217.354 312.639 225.013 312.639Z" fill="white"/>
<path d="M332.384 420.56C348.607 420.56 361.758 405.687 361.758 387.341C361.758 368.995 348.607 354.123 332.384 354.123C316.16 354.123 303.009 368.995 303.009 387.341C303.009 405.687 316.16 420.56 332.384 420.56Z" fill="#FF6583"/>
<path d="M459.83 539.156H260.987C260.738 539.159 260.489 539.137 260.244 539.089L354.288 354.877C354.862 353.73 355.695 352.776 356.701 352.112C357.708 351.448 358.853 351.098 360.019 351.098C361.184 351.098 362.329 351.448 363.336 352.112C364.343 352.776 365.176 353.73 365.75 354.877L428.865 478.498L431.888 484.413L459.83 539.156Z" fill="#3857E0"/>
<path opacity="0.2" d="M459.83 539.155H391.94L425.267 484.413L427.666 480.469L428.865 478.498L431.888 484.413L459.83 539.155Z" fill="white"/>
<path d="M570.545 539.156H398.562L431.889 484.413L434.287 480.469L477.715 409.129C480.562 404.454 487.411 404.162 490.759 408.247C490.983 408.526 491.192 408.821 491.384 409.129L570.545 539.156Z" fill="#3857E0"/>
<path d="M179.996 597.477H337.722C337.873 597.477 338.018 597.409 338.124 597.288C338.231 597.168 338.291 597.004 338.291 596.833C338.291 596.662 338.231 596.499 338.124 596.378C338.018 596.257 337.873 596.189 337.722 596.189H179.996C179.845 596.189 179.7 596.257 179.593 596.378C179.486 596.499 179.426 596.662 179.426 596.833C179.426 597.004 179.486 597.168 179.593 597.288C179.7 597.409 179.845 597.477 179.996 597.477Z" fill="#CBCBCB"/>
</g>
<g clip-path="url(#clip2)">
<path d="M437.616 576.844H88.0994C87.8561 576.844 87.6228 576.743 87.4507 576.563C87.2787 576.383 87.182 576.139 87.182 575.884C87.182 575.63 87.2787 575.386 87.4507 575.206C87.6228 575.026 87.8561 574.925 88.0994 574.925H437.616C437.859 574.925 438.093 575.026 438.265 575.206C438.437 575.386 438.534 575.63 438.534 575.884C438.534 576.139 438.437 576.383 438.265 576.563C438.093 576.743 437.859 576.844 437.616 576.844Z" fill="#3F3D56"/>
<path d="M269.792 451.126C283.472 451.126 294.561 439.525 294.561 425.215C294.561 410.904 283.472 399.303 269.792 399.303C256.113 399.303 245.023 410.904 245.023 425.215C245.023 439.525 256.113 451.126 269.792 451.126Z" fill="#2F2E41"/>
<path d="M246.258 591.552L245.602 579.807L288.595 571.569L289.564 588.904L246.258 591.552Z" fill="#FFB8B8"/>
<path d="M248.341 571.221L249.607 593.873L235.973 594.707L233.911 557.793C235.701 557.683 237.494 557.944 239.188 558.559C240.883 559.175 242.444 560.134 243.784 561.38C245.124 562.627 246.216 564.138 246.998 565.827C247.78 567.515 248.236 569.348 248.341 571.221Z" fill="#2F2E41"/>
<path d="M264.958 591.445L257.816 600.534L220.905 576.044L231.444 562.629L264.958 591.445Z" fill="#FFB8B8"/>
<path d="M250.233 604.892L264.005 587.362L274.555 596.434L252.111 625C250.726 623.809 249.578 622.344 248.734 620.688C247.89 619.033 247.365 617.22 247.191 615.353C247.016 613.486 247.195 611.601 247.717 609.806C248.239 608.011 249.094 606.341 250.233 604.892Z" fill="#2F2E41"/>
<path d="M244.406 549.176L239.526 573.244C239.414 573.798 239.42 574.372 239.545 574.923C239.669 575.474 239.909 575.99 240.246 576.433C240.584 576.876 241.011 577.235 241.497 577.485C241.982 577.735 242.515 577.87 243.057 577.879L291.033 578.688C291.574 578.697 292.11 578.581 292.603 578.348C293.096 578.116 293.533 577.772 293.884 577.341C294.235 576.911 294.491 576.404 294.633 575.858C294.775 575.312 294.8 574.74 294.706 574.183L290.509 549.306C290.359 548.417 289.915 547.612 289.254 547.032C288.593 546.452 287.758 546.134 286.896 546.134H247.996C247.155 546.134 246.34 546.436 245.686 546.99C245.033 547.544 244.581 548.316 244.406 549.176Z" fill="#2F2E41"/>
<path d="M252.362 557.65C252.362 557.65 205.577 526.941 196.403 543.255C191.816 551.412 194.109 559.33 197.55 565.208C200.742 570.56 205.325 574.851 210.762 577.579L248.693 596.997L262.453 581.642L253.28 573.005L252.362 557.65Z" fill="#2F2E41"/>
<path d="M276.214 552.852C276.214 552.852 336.76 534.618 324.834 569.166C312.908 603.715 267.957 590.279 267.957 590.279L263.371 575.884L278.966 564.368L276.214 552.852Z" fill="#2F2E41"/>
<path d="M270.103 454.702C282.547 454.702 292.634 444.149 292.634 431.131C292.634 418.114 282.547 407.561 270.103 407.561C257.659 407.561 247.571 418.114 247.571 431.131C247.571 444.149 257.659 454.702 270.103 454.702Z" fill="#FFB8B8"/>
<path d="M271.283 556.661C261.921 556.513 252.606 555.229 243.526 552.835L243.258 552.758L230.685 492.255C229.554 486.939 230.323 481.373 232.847 476.609C235.371 471.845 239.475 468.213 244.384 466.398C259.548 460.707 276.076 460.361 291.445 465.415H291.445C296.602 467.154 300.943 470.862 303.601 475.801C306.26 480.74 307.041 486.546 305.788 492.06L291.744 552.708L291.547 552.806C285.711 555.698 278.413 556.661 271.283 556.661Z" fill="#CCCCCC"/>
<path d="M254.394 561.361C254.851 560.033 255.58 558.827 256.531 557.826C257.482 556.825 258.63 556.055 259.896 555.569C261.162 555.083 262.515 554.893 263.859 555.013C265.202 555.133 266.505 555.559 267.674 556.263L292.43 533.783L294.67 551.449L270.817 570.088C269.558 572.064 267.649 573.488 265.452 574.091C263.256 574.693 260.925 574.431 258.901 573.355C256.876 572.28 255.299 570.465 254.469 568.254C253.638 566.043 253.612 563.59 254.394 561.361Z" fill="#FFB8B8"/>
<path d="M278.005 566.264C277.603 566.264 277.202 566.202 276.816 566.081C276.19 565.891 275.616 565.546 275.143 565.075C274.671 564.605 274.312 564.023 274.099 563.378L271.11 554.522C270.831 553.704 270.795 552.815 271.008 551.975C271.222 551.135 271.674 550.383 272.305 549.817L306.036 528.633L292.739 466.579L293.077 466.494C293.215 466.458 306.838 463.215 312.421 478.788C316.33 489.695 330.797 513.41 329.776 529.436C329.582 532.642 328.361 535.686 326.31 538.076C324.259 540.466 321.498 542.064 318.472 542.61L280.504 565.367C279.789 565.947 278.91 566.263 278.005 566.264Z" fill="#CCCCCC"/>
<path d="M281.789 559.256C281.332 557.928 280.603 556.721 279.652 555.721C278.702 554.72 277.553 553.949 276.287 553.463C275.021 552.977 273.668 552.788 272.324 552.908C270.981 553.027 269.679 553.454 268.509 554.158L243.753 531.678L241.513 549.344L265.366 567.983C266.625 569.959 268.534 571.383 270.731 571.985C272.927 572.587 275.258 572.326 277.283 571.25C279.307 570.174 280.884 568.359 281.714 566.149C282.545 563.938 282.571 561.485 281.789 559.256Z" fill="#FFB8B8"/>
<path d="M260.661 566.264C259.757 566.263 258.878 565.947 258.163 565.367L217.442 544.53C214.417 543.983 211.656 542.386 209.605 539.995C207.554 537.605 206.333 534.561 206.139 531.356C205.118 515.33 222.337 489.695 226.246 478.788C231.829 463.215 245.452 466.457 245.59 466.494L245.928 466.579L229.879 530.552L266.362 549.817C266.993 550.383 267.445 551.135 267.658 551.975C267.872 552.815 267.836 553.704 267.557 554.522L264.568 563.378C264.355 564.023 263.996 564.605 263.524 565.075C263.051 565.546 262.477 565.891 261.851 566.081C261.465 566.202 261.064 566.264 260.661 566.264Z" fill="#CCCCCC"/>
<path d="M309.239 575.884H227.593C225.891 575.882 224.259 575.174 223.055 573.914C221.851 572.655 221.174 570.947 221.172 569.166V522.142C221.174 520.361 221.851 518.654 223.055 517.394C224.259 516.135 225.891 515.426 227.593 515.424H309.239C310.941 515.426 312.574 516.135 313.778 517.394C314.981 518.654 315.659 520.361 315.661 522.142V569.166C315.659 570.947 314.981 572.655 313.778 573.914C312.574 575.174 310.941 575.882 309.239 575.884Z" fill="#3857E0"/>
<path d="M268.416 551.412C271.456 551.412 273.92 548.834 273.92 545.654C273.92 542.474 271.456 539.896 268.416 539.896C265.376 539.896 262.912 542.474 262.912 545.654C262.912 548.834 265.376 551.412 268.416 551.412Z" fill="white"/>
<path d="M247.346 430.172C246.01 426.629 248.201 422.406 251.452 420.689C254.702 418.973 258.624 419.299 262.101 420.431C265.022 421.381 267.76 422.855 270.611 424.018C273.421 425.321 276.491 425.893 279.558 425.685C282.598 425.326 285.624 423.542 286.868 420.618C288.158 417.587 287.281 413.888 285.295 411.301C283.182 408.8 280.447 406.961 277.395 405.989C270.691 403.518 262.948 403.446 256.724 407.038C250.501 410.629 246.272 418.276 247.558 425.588" fill="#2F2E41"/>
<path d="M117.146 565.633C118.279 552.864 121.409 540.377 126.411 528.669C127.806 525.411 129.34 522.225 131.015 519.11C131.099 518.947 131.119 518.756 131.071 518.578C131.024 518.4 130.911 518.248 130.759 518.155C130.606 518.062 130.425 518.034 130.253 518.078C130.081 518.122 129.932 518.234 129.837 518.39C123.747 529.734 119.48 542.049 117.207 554.841C116.575 558.413 116.1 562.011 115.782 565.633C115.701 566.547 117.065 566.541 117.146 565.633Z" fill="#E6E6E6"/>
<path d="M134.318 521.398C139.087 521.398 142.954 517.353 142.954 512.363C142.954 507.373 139.087 503.328 134.318 503.328C129.548 503.328 125.681 507.373 125.681 512.363C125.681 517.353 129.548 521.398 134.318 521.398Z" fill="#5787FF"/>
<path d="M118.029 565.873C118.764 557.59 120.795 549.488 124.04 541.893C124.945 539.779 125.94 537.712 127.027 535.692C127.081 535.586 127.094 535.462 127.063 535.347C127.032 535.231 126.959 535.133 126.86 535.072C126.761 535.011 126.644 534.993 126.532 535.022C126.421 535.05 126.324 535.123 126.263 535.224C122.312 542.584 119.543 550.573 118.069 558.872C117.659 561.189 117.351 563.523 117.144 565.873C117.092 566.466 117.977 566.462 118.029 565.873H118.029Z" fill="#E6E6E6"/>
<path d="M129.169 537.176C132.264 537.176 134.772 534.552 134.772 531.314C134.772 528.077 132.264 525.453 129.169 525.453C126.075 525.453 123.566 528.077 123.566 531.314C123.566 534.552 126.075 537.176 129.169 537.176Z" fill="#5787FF"/>
<path d="M116.912 565.32C112.622 558.315 109.46 550.621 107.553 542.544C107.023 540.296 106.593 538.025 106.262 535.733C106.243 535.615 106.18 535.509 106.088 535.437C105.995 535.366 105.88 535.335 105.766 535.351C105.653 535.367 105.549 535.429 105.478 535.523C105.407 535.617 105.373 535.737 105.385 535.856C106.596 544.201 109.111 552.282 112.827 559.774C113.867 561.865 114.996 563.903 116.215 565.889C116.522 566.39 117.218 565.818 116.912 565.32Z" fill="#E6E6E6"/>
<path d="M105.378 536.764C108.472 536.764 110.981 534.14 110.981 530.903C110.981 527.666 108.472 525.042 105.378 525.042C102.283 525.042 99.7748 527.666 99.7748 530.903C99.7748 534.14 102.283 536.764 105.378 536.764Z" fill="#5787FF"/>
<path d="M99.7119 570.506V558.99C99.7131 557.845 100.148 556.747 100.922 555.937C101.696 555.128 102.746 554.672 103.84 554.671H129.526C130.621 554.672 131.67 555.128 132.444 555.937C133.218 556.747 133.653 557.845 133.654 558.99V570.506C133.653 571.651 133.218 572.749 132.444 573.558C131.67 574.368 130.621 574.823 129.526 574.824H103.84C102.746 574.823 101.696 574.368 100.922 573.558C100.148 572.749 99.7131 571.651 99.7119 570.506Z" fill="#3E424B"/>
<path d="M375.61 583.946C375.61 590.258 370.719 593.127 364.686 593.127C358.652 593.127 353.761 590.258 353.761 583.946C353.761 577.634 356.188 570.27 364.686 572.809C373.183 569 375.61 577.634 375.61 583.946Z" fill="#3E424B"/>
<path d="M364.156 575.266L364.152 575.266C363.856 575.267 363.566 575.154 363.337 574.944C363.108 574.734 362.956 574.44 362.915 574.114C362.729 572.494 362.129 570.13 361.48 567.883C360.833 565.637 360.126 563.473 359.704 562.214L359.703 562.212L359.696 562.19C359.636 562.014 359.617 561.826 359.642 561.64C359.667 561.457 359.732 561.285 359.832 561.137C359.931 561.004 360.054 560.896 360.193 560.818C360.333 560.739 360.487 560.692 360.644 560.68C360.801 560.669 360.959 560.691 361.108 560.748C361.254 560.804 361.39 560.892 361.504 561.007C361.604 561.118 361.682 561.249 361.733 561.395L362.204 561.229L361.733 561.395C361.785 561.543 361.807 561.701 361.798 561.86L361.798 561.863C361.71 563.572 362.258 565.752 362.97 567.814C363.687 569.892 364.593 571.913 365.273 573.328L365.273 573.328C365.366 573.522 365.414 573.738 365.41 573.958C365.407 574.177 365.352 574.392 365.252 574.582C365.153 574.772 365.011 574.932 364.843 575.049C364.674 575.166 364.483 575.237 364.285 575.259L364.285 575.259L364.281 575.259C364.239 575.264 364.197 575.266 364.156 575.266Z" fill="#5787FF" stroke="black"/>
<path d="M372.237 568.673C376.029 565.426 373.054 558.781 368.308 560.056C367.669 560.216 367.08 560.545 366.598 561.01C363.687 563.888 363.235 571.249 363.235 571.249C363.235 571.249 368.377 571.978 372.237 568.673Z" fill="#5787FF"/>
</g>
<defs>
<clipPath id="clip0">
<rect width="526.569" height="352.203" fill="white" transform="translate(67 234.718)"/>
</clipPath>
<clipPath id="clip1">
<rect width="572.437" height="299.42" fill="white" transform="translate(149.563 298.057)"/>
</clipPath>
<clipPath id="clip2">
<rect width="600.875" height="397" fill="white" transform="translate(87.182 228)"/>
</clipPath>
</defs>
</svg>
